<svg width="62" height="63" viewBox="0 0 62 63" fill="none" xmlns="http://www.w3.org/2000/svg">
<path d="M29.177 3.98854C29.8464 3.52265 30.6007 3.11588 31.4166 3C31.8943 3.06858 32.327 3.29798 32.7598 3.50136C40.7887 7.54303 48.8318 11.5516 56.8724 15.5672C57.7403 16.0284 58.7336 16.3122 59.4643 16.9933C59.5378 17.9818 59.3437 18.9633 59.2611 19.9424C58.7809 25.0436 57.4235 30.0406 55.418 34.7467C52.7907 34.8556 50.1585 34.7067 47.531 34.8248C46.6986 36.2817 45.8685 37.7432 44.9085 39.1219C43.0448 41.9244 40.758 44.4217 38.2843 46.6944C37.1988 47.6592 36.1085 48.6312 34.9024 49.4496C34.4886 49.7428 34.0487 50.0124 33.6988 50.3861C33.4906 50.8519 33.526 51.3794 33.5048 51.8783C33.5166 53.6189 33.5189 55.3596 33.5402 57.1024C33.5356 57.618 33.5521 58.1407 33.4409 58.6491C32.968 59.2285 32.2467 59.5572 31.5466 59.7771C31.0855 59.9238 30.6385 59.6613 30.2295 59.4816C20.5499 54.494 12.4808 46.3279 7.82903 36.4614C6.8405 34.4464 5.94183 32.3725 5.38135 30.1967C7.83376 30.1115 10.2885 30.277 12.7409 30.1257C11.8139 27.2476 10.9176 24.3506 10.4375 21.3589C12.4217 20.1576 14.5548 19.2376 16.6028 18.1545C20.3536 16.3311 24.0642 14.4297 27.8148 12.6063C28.1341 12.4408 28.4558 12.2729 28.7371 12.0459C28.9216 11.6415 28.898 11.185 28.917 10.7522C28.9074 8.85083 28.879 6.94942 28.8861 5.0504C28.9311 4.69565 28.8364 4.2203 29.177 3.98854ZM33.5853 9.23868C33.4386 11.7952 33.5899 14.354 33.5072 16.9105C32.8143 16.6385 32.1403 16.2933 31.4024 16.1632C30.9696 16.1987 30.5817 16.4091 30.1963 16.5889C25.4074 19.0129 20.609 21.4156 15.8058 23.8114C16.2505 26.3158 17.2224 28.6878 18.2535 31.0007C18.8495 32.2707 19.5708 33.4768 20.1005 34.7776C17.4755 34.8319 14.8481 34.7042 12.223 34.8438C13.8004 38.3486 15.9998 41.5531 18.4971 44.4643C21.4959 47.8888 24.9581 50.9229 28.8435 53.3044C28.9641 50.4925 28.8767 47.6759 28.7845 44.8664C29.65 45.2257 30.3785 45.8217 31.1873 46.2758C31.7997 46.0606 32.3057 45.6372 32.8095 45.2399C34.1812 44.0954 35.6002 42.9957 36.8299 41.6925C38.185 40.2051 39.5803 38.7269 40.6374 37.0006C42.2738 34.9644 43.4634 32.5947 44.5395 30.2227C47.0982 30.1328 49.6619 30.2486 52.2231 30.1589C53.3109 27.1743 54.07 24.0716 54.4413 20.9167C54.4744 20.543 54.5122 20.1646 54.4626 19.791C54.1954 19.4291 53.7602 19.2518 53.3795 19.0366C48.302 16.57 43.2838 13.9827 38.2227 11.4877C36.6857 10.7215 35.191 9.86066 33.5853 9.23868Z" fill="#EAB308"/>
<path d="M5.64789 15.7148C12.5794 12.2667 19.4944 8.78555 26.4283 5.33984C26.4542 7.06152 26.4851 8.78319 26.4638 10.5048C22.0319 12.8012 17.541 14.9888 13.0784 17.2236C11.3686 18.075 9.66823 18.9476 7.93948 19.7635C7.9726 22.4785 8.79794 25.0846 9.3868 27.7121C7.7834 27.7167 6.17999 27.7238 4.57659 27.66C3.76779 24.6827 3.28772 21.6248 3.04177 18.5503C3.00866 18.0939 2.97318 17.6327 3.02994 17.1763C3.78435 16.5047 4.76578 16.176 5.64789 15.7148Z" fill="#0EA5E9"/>
<path d="M36.0813 13.1143C41.3763 15.7441 46.6453 18.4306 51.9545 21.0368C51.7323 23.2952 51.1267 25.4946 50.4788 27.6633C48.8564 27.7036 47.2342 27.7011 45.6118 27.6846C45.9288 26.3768 46.501 25.1257 46.6429 23.7802C46.2126 23.3449 45.6496 23.0801 45.1033 22.8199C42.5327 21.6563 40.0779 20.2611 37.5167 19.0763C37.0082 18.8208 36.4573 18.6009 36.0481 18.1918C35.8968 16.5056 35.982 14.8028 36.0813 13.1143Z" fill="#0EA5E9"/>
<path d="M29.1253 24.2834C30.0806 23.3941 31.5943 23.3256 32.7411 23.8623C34.0845 24.5601 34.7347 26.2274 34.3825 27.677C34.2239 28.6916 33.4128 29.3846 32.6702 30.0089C33.0533 31.5485 33.6234 33.0336 34.0324 34.5661C32.15 34.6276 30.2676 34.6063 28.385 34.5732C28.7445 33.3931 29.1725 32.2319 29.532 31.0494C29.6053 30.7136 29.7542 30.3541 29.6478 30.0089C29.1631 29.3159 28.4063 28.7957 28.1414 27.9608C27.6851 26.6838 28.1485 25.1916 29.1253 24.2834Z" fill="#EAB308"/>
<path d="M16.4487 37.2962C18.2721 37.2417 20.0954 37.263 21.9164 37.2891C23.0067 38.6323 24.0235 40.0442 25.2699 41.2503C25.653 41.6524 26.0881 42.0236 26.3529 42.5202C26.5115 43.1043 26.4641 43.7193 26.4712 44.32C26.438 45.7507 26.4948 47.1815 26.4593 48.6124C23.515 46.3727 20.9231 43.6838 18.7001 40.7276C17.8629 39.6446 17.0589 38.5259 16.4487 37.2962Z" fill="#0EA5E9"/>
<path d="M48.9877 37.2964C50.7095 37.2538 52.4358 37.2442 54.1575 37.2964C53.2375 39.4768 51.9156 41.4562 50.6101 43.4192C48.8671 45.8172 47.0131 48.1489 44.887 50.2206C42.2171 52.8575 39.3153 55.3029 36.0731 57.2089C35.917 55.3856 36.0092 53.5576 36.0021 51.7318C41.309 47.9361 45.7832 42.9816 48.9877 37.2964Z" fill="#0EA5E9"/>
</svg>
