<svg width="40" height="40" viewBox="0 0 40 40" fill="none" xmlns="http://www.w3.org/2000/svg">
<path d="M13.3349 20C13.3349 16.3203 16.3189 13.3365 20.0008 13.3365C23.6827 13.3365 26.6683 16.3203 26.6683 20C26.6683 23.6797 23.6827 26.6634 20.0008 26.6634C16.3189 26.6634 13.3349 23.6797 13.3349 20ZM9.73063 20C9.73063 25.6688 14.3286 30.264 20.0008 30.264C25.673 30.264 30.271 25.6688 30.271 20C30.271 14.3312 25.673 9.73596 20.0008 9.73596C14.3286 9.73596 9.73063 14.3312 9.73063 20ZM28.2775 9.32899C28.2773 9.8034 28.4178 10.2672 28.6814 10.6618C28.945 11.0563 29.3197 11.3639 29.7582 11.5457C30.1967 11.7274 30.6792 11.7751 31.1448 11.6827C31.6105 11.5903 32.0382 11.3621 32.374 11.0267C32.7098 10.6914 32.9385 10.2641 33.0313 9.79885C33.1241 9.33359 33.0768 8.85128 32.8953 8.41291C32.7138 7.97454 32.4064 7.5998 32.0118 7.33607C31.6172 7.07235 31.1532 6.93148 30.6785 6.93129H30.6775C30.0413 6.93159 29.4311 7.18427 28.9811 7.63383C28.5311 8.0834 28.278 8.69309 28.2775 9.32899ZM11.9205 36.2704C9.97048 36.1816 8.9106 35.857 8.20625 35.5828C7.27245 35.2195 6.60618 34.7867 5.90568 34.0876C5.20517 33.3885 4.77155 32.7233 4.40962 31.79C4.13505 31.0864 3.81023 30.0268 3.72159 28.078C3.62463 25.971 3.60526 25.3381 3.60526 20.0001C3.60526 14.6622 3.62623 14.031 3.72159 11.9223C3.81039 9.97343 4.13761 8.91594 4.40962 8.21026C4.77315 7.27702 5.20613 6.61115 5.90568 5.91107C6.60522 5.21098 7.27085 4.77762 8.20625 4.4159C8.91028 4.1415 9.97048 3.81688 11.9205 3.72829C14.0287 3.63138 14.662 3.61203 20.0008 3.61203C25.3396 3.61203 25.9735 3.63298 28.0835 3.72829C30.0335 3.81704 31.0916 4.14406 31.7978 4.4159C32.7316 4.77762 33.3978 5.21194 34.0983 5.91107C34.7988 6.6102 35.2309 7.27702 35.5944 8.21026C35.869 8.91387 36.1938 9.97343 36.2824 11.9223C36.3794 14.031 36.3987 14.6622 36.3987 20.0001C36.3987 25.3381 36.3794 25.9693 36.2824 28.078C36.1936 30.0268 35.8672 31.0861 35.5944 31.79C35.2309 32.7233 34.7979 33.3891 34.0983 34.0876C33.3988 34.7861 32.7316 35.2195 31.7978 35.5828C31.0937 35.8572 30.0335 36.1818 28.0835 36.2704C25.9753 36.3673 25.342 36.3866 20.0008 36.3866C14.6596 36.3866 14.0281 36.3673 11.9205 36.2704ZM11.7549 0.132222C9.62567 0.229127 8.17073 0.566538 6.90012 1.06066C5.58422 1.57094 4.47026 2.25551 3.35709 3.36625C2.24393 4.47699 1.5607 5.59204 1.05012 6.90715C0.555702 8.1778 0.218089 9.63106 0.121125 11.759C0.0225609 13.8903 0 14.5717 0 20C0 25.4283 0.0225609 26.1097 0.121125 28.241C0.218089 30.3691 0.555702 31.8222 1.05012 33.0928C1.5607 34.4071 2.24409 35.5234 3.35709 36.6337C4.4701 37.744 5.58422 38.4276 6.90012 38.9393C8.17313 39.4334 9.62567 39.7708 11.7549 39.8677C13.8886 39.9646 14.5692 39.9888 20.0008 39.9888C25.4324 39.9888 26.1142 39.9662 28.2467 39.8677C30.3761 39.7708 31.8301 39.4334 33.1015 38.9393C34.4166 38.4276 35.5313 37.7444 36.6445 36.6337C37.7577 35.523 38.4395 34.4071 38.9515 33.0928C39.4459 31.8222 39.7851 30.3689 39.8805 28.241C39.9774 26.1081 40 25.4283 40 20C40 14.5717 39.9774 13.8903 39.8805 11.759C39.7835 9.6309 39.4459 8.177 38.9515 6.90715C38.4395 5.59284 37.7559 4.47875 36.6445 3.36625C35.5331 2.25375 34.4166 1.57094 33.1031 1.06066C31.8301 0.566538 30.3759 0.227528 28.2483 0.132222C26.1158 0.0353159 25.434 0.0111694 20.0024 0.0111694C14.5708 0.0111694 13.8886 0.0337168 11.7549 0.132222Z" fill="url(#paint0_radial_417_325)"/>
<path d="M13.3349 20C13.3349 16.3203 16.3189 13.3365 20.0008 13.3365C23.6827 13.3365 26.6683 16.3203 26.6683 20C26.6683 23.6797 23.6827 26.6634 20.0008 26.6634C16.3189 26.6634 13.3349 23.6797 13.3349 20ZM9.73063 20C9.73063 25.6688 14.3286 30.264 20.0008 30.264C25.673 30.264 30.271 25.6688 30.271 20C30.271 14.3312 25.673 9.73596 20.0008 9.73596C14.3286 9.73596 9.73063 14.3312 9.73063 20ZM28.2775 9.32899C28.2773 9.8034 28.4178 10.2672 28.6814 10.6618C28.945 11.0563 29.3197 11.3639 29.7582 11.5457C30.1967 11.7274 30.6792 11.7751 31.1448 11.6827C31.6105 11.5903 32.0382 11.3621 32.374 11.0267C32.7098 10.6914 32.9385 10.2641 33.0313 9.79885C33.1241 9.33359 33.0768 8.85128 32.8953 8.41291C32.7138 7.97454 32.4064 7.5998 32.0118 7.33607C31.6172 7.07235 31.1532 6.93148 30.6785 6.93129H30.6775C30.0413 6.93159 29.4311 7.18427 28.9811 7.63383C28.5311 8.0834 28.278 8.69309 28.2775 9.32899ZM11.9205 36.2704C9.97048 36.1816 8.9106 35.857 8.20625 35.5828C7.27245 35.2195 6.60618 34.7867 5.90568 34.0876C5.20517 33.3885 4.77155 32.7233 4.40962 31.79C4.13505 31.0864 3.81023 30.0268 3.72159 28.078C3.62463 25.971 3.60526 25.3381 3.60526 20.0001C3.60526 14.6622 3.62623 14.031 3.72159 11.9223C3.81039 9.97343 4.13761 8.91594 4.40962 8.21026C4.77315 7.27702 5.20613 6.61115 5.90568 5.91107C6.60522 5.21098 7.27085 4.77762 8.20625 4.4159C8.91028 4.1415 9.97048 3.81688 11.9205 3.72829C14.0287 3.63138 14.662 3.61203 20.0008 3.61203C25.3396 3.61203 25.9735 3.63298 28.0835 3.72829C30.0335 3.81704 31.0916 4.14406 31.7978 4.4159C32.7316 4.77762 33.3978 5.21194 34.0983 5.91107C34.7988 6.6102 35.2309 7.27702 35.5944 8.21026C35.869 8.91387 36.1938 9.97343 36.2824 11.9223C36.3794 14.031 36.3987 14.6622 36.3987 20.0001C36.3987 25.3381 36.3794 25.9693 36.2824 28.078C36.1936 30.0268 35.8672 31.0861 35.5944 31.79C35.2309 32.7233 34.7979 33.3891 34.0983 34.0876C33.3988 34.7861 32.7316 35.2195 31.7978 35.5828C31.0937 35.8572 30.0335 36.1818 28.0835 36.2704C25.9753 36.3673 25.342 36.3866 20.0008 36.3866C14.6596 36.3866 14.0281 36.3673 11.9205 36.2704ZM11.7549 0.132222C9.62567 0.229127 8.17073 0.566538 6.90012 1.06066C5.58422 1.57094 4.47026 2.25551 3.35709 3.36625C2.24393 4.47699 1.5607 5.59204 1.05012 6.90715C0.555702 8.1778 0.218089 9.63106 0.121125 11.759C0.0225609 13.8903 0 14.5717 0 20C0 25.4283 0.0225609 26.1097 0.121125 28.241C0.218089 30.3691 0.555702 31.8222 1.05012 33.0928C1.5607 34.4071 2.24409 35.5234 3.35709 36.6337C4.4701 37.744 5.58422 38.4276 6.90012 38.9393C8.17313 39.4334 9.62567 39.7708 11.7549 39.8677C13.8886 39.9646 14.5692 39.9888 20.0008 39.9888C25.4324 39.9888 26.1142 39.9662 28.2467 39.8677C30.3761 39.7708 31.8301 39.4334 33.1015 38.9393C34.4166 38.4276 35.5313 37.7444 36.6445 36.6337C37.7577 35.523 38.4395 34.4071 38.9515 33.0928C39.4459 31.8222 39.7851 30.3689 39.8805 28.241C39.9774 26.1081 40 25.4283 40 20C40 14.5717 39.9774 13.8903 39.8805 11.759C39.7835 9.6309 39.4459 8.177 38.9515 6.90715C38.4395 5.59284 37.7559 4.47875 36.6445 3.36625C35.5331 2.25375 34.4166 1.57094 33.1031 1.06066C31.8301 0.566538 30.3759 0.227528 28.2483 0.132222C26.1158 0.0353159 25.434 0.0111694 20.0024 0.0111694C14.5708 0.0111694 13.8886 0.0337168 11.7549 0.132222Z" fill="url(#paint1_radial_417_325)"/>
<defs>
<radialGradient id="paint0_radial_417_325" cx="0" cy="0" r="1" gradientUnits="userSpaceOnUse" gradientTransform="translate(5.31445 40.1776) scale(52.2187 52.1874)">
<stop offset="0.09" stop-color="#FA8F21"/>
<stop offset="0.78" stop-color="#D82D7E"/>
</radialGradient>
<radialGradient id="paint1_radial_417_325" cx="0" cy="0" r="1" gradientUnits="userSpaceOnUse" gradientTransform="translate(24.2592 41.9686) scale(41.1556 41.1309)">
<stop offset="0.64" stop-color="#8C3AAA" stop-opacity="0"/>
<stop offset="1" stop-color="#8C3AAA"/>
</radialGradient>
</defs>
</svg>
