<svg width="44" height="44" viewBox="0 0 44 44" fill="none" xmlns="http://www.w3.org/2000/svg">
<g clip-path="url(#clip0_417_329)">
<path d="M43.1235 11.34C42.8747 10.4039 42.3844 9.5496 41.7018 8.86254C41.0191 8.17547 40.1679 7.67975 39.2335 7.425C35.7935 6.5 22.0435 6.5 22.0435 6.5C22.0435 6.5 8.29346 6.5 4.85346 7.425C3.919 7.67975 3.06783 8.17547 2.38515 8.86254C1.70247 9.5496 1.21222 10.4039 0.963457 11.34C0.0434571 14.795 0.043457 22 0.043457 22C0.043457 22 0.0434571 29.205 0.963457 32.66C1.21222 33.5961 1.70247 34.4504 2.38515 35.1375C3.06783 35.8245 3.919 36.3202 4.85346 36.575C8.29346 37.5 22.0435 37.5 22.0435 37.5C22.0435 37.5 35.7935 37.5 39.2335 36.575C40.1679 36.3202 41.0191 35.8245 41.7018 35.1375C42.3844 34.4504 42.8747 33.5961 43.1235 32.66C44.0435 29.205 44.0435 22 44.0435 22C44.0435 22 44.0435 14.795 43.1235 11.34Z" fill="#FF0302"/>
<path d="M17.5435 28.5426V15.4576L29.0434 22.0001L17.5435 28.5426Z" fill="#FEFEFE"/>
</g>
<defs>
<clipPath id="clip0_417_329">
<rect width="44" height="44" fill="white"/>
</clipPath>
</defs>
</svg>
